<mxfile host="app.diagrams.net" modified="2021-12-04T14:39:38.922Z" agent="5.0 (Windows NT 10.0; Win64; x64) AppleWebKit/537.36 (KHTML, like Gecko) Chrome/96.0.4664.45 Safari/537.36" etag="nZUVpI-WP4Q3nGQdwpjY" version="15.9.1" type="github">
  <diagram id="bBl0uM8PyTTQ0kxkWniF" name="Page-1">
    <mxGraphModel dx="1497" dy="802" grid="1" gridSize="10" guides="1" tooltips="1" connect="1" arrows="1" fold="1" page="1" pageScale="1" pageWidth="827" pageHeight="1169" math="0" shadow="0">
      <root>
        <mxCell id="0" />
        <mxCell id="1" parent="0" />
        <mxCell id="r1ISIz02WGAyI84771dC-1" value="" style="ellipse;html=1;shape=endState;fillColor=#000000;strokeColor=#ff0000;" parent="1" vertex="1">
          <mxGeometry x="80" y="200" width="30" height="30" as="geometry" />
        </mxCell>
        <mxCell id="r1ISIz02WGAyI84771dC-3" value="Login" style="swimlane;fontStyle=1;childLayout=stackLayout;horizontal=1;startSize=30;horizontalStack=0;resizeParent=1;resizeParentMax=0;resizeLast=0;collapsible=1;marginBottom=0;rounded=1;" parent="1" vertex="1">
          <mxGeometry x="160" y="150" width="120" height="130" as="geometry" />
        </mxCell>
        <mxCell id="r1ISIz02WGAyI84771dC-4" value="do: &#xa;display password &#xa;input field" style="text;strokeColor=none;fillColor=none;align=left;verticalAlign=middle;spacingLeft=4;spacingRight=4;overflow=hidden;points=[[0,0.5],[1,0.5]];portConstraint=eastwest;rotatable=0;" parent="r1ISIz02WGAyI84771dC-3" vertex="1">
          <mxGeometry y="30" width="120" height="100" as="geometry" />
        </mxCell>
        <mxCell id="r1ISIz02WGAyI84771dC-8" value="" style="endArrow=classic;html=1;rounded=0;exitX=1;exitY=0.5;exitDx=0;exitDy=0;entryX=-0.001;entryY=0.348;entryDx=0;entryDy=0;entryPerimeter=0;" parent="1" source="r1ISIz02WGAyI84771dC-1" target="r1ISIz02WGAyI84771dC-4" edge="1">
          <mxGeometry width="50" height="50" relative="1" as="geometry">
            <mxPoint x="160" y="170" as="sourcePoint" />
            <mxPoint x="230" y="215" as="targetPoint" />
          </mxGeometry>
        </mxCell>
        <mxCell id="HgPbjYQ1XVsyM2-B97IY-1" value="ADMIN PANEL" style="text;html=1;strokeColor=none;fillColor=none;align=center;verticalAlign=middle;whiteSpace=wrap;rounded=0;" parent="1" vertex="1">
          <mxGeometry x="70" y="70" width="60" height="30" as="geometry" />
        </mxCell>
        <mxCell id="DFZmVCu-qsXQX8Id_bJ5-1" value="Main Page" style="swimlane;fontStyle=1;childLayout=stackLayout;horizontal=1;startSize=30;horizontalStack=0;resizeParent=1;resizeParentMax=0;resizeLast=0;collapsible=1;marginBottom=0;rounded=1;" vertex="1" parent="1">
          <mxGeometry x="400" y="150" width="130" height="130" as="geometry" />
        </mxCell>
        <mxCell id="DFZmVCu-qsXQX8Id_bJ5-2" value="do: &#xa;display admin options" style="text;strokeColor=none;fillColor=none;align=left;verticalAlign=middle;spacingLeft=4;spacingRight=4;overflow=hidden;points=[[0,0.5],[1,0.5]];portConstraint=eastwest;rotatable=0;" vertex="1" parent="DFZmVCu-qsXQX8Id_bJ5-1">
          <mxGeometry y="30" width="130" height="100" as="geometry" />
        </mxCell>
        <mxCell id="DFZmVCu-qsXQX8Id_bJ5-3" value="" style="rhombus;whiteSpace=wrap;html=1;" vertex="1" parent="1">
          <mxGeometry x="320" y="205" width="20" height="25" as="geometry" />
        </mxCell>
        <mxCell id="DFZmVCu-qsXQX8Id_bJ5-4" value="" style="endArrow=classic;html=1;rounded=0;exitX=1.005;exitY=0.378;exitDx=0;exitDy=0;exitPerimeter=0;" edge="1" parent="1" source="r1ISIz02WGAyI84771dC-4">
          <mxGeometry width="50" height="50" relative="1" as="geometry">
            <mxPoint x="390" y="410" as="sourcePoint" />
            <mxPoint x="320" y="218" as="targetPoint" />
          </mxGeometry>
        </mxCell>
        <mxCell id="DFZmVCu-qsXQX8Id_bJ5-6" value="" style="endArrow=classic;html=1;rounded=0;exitX=1.005;exitY=0.378;exitDx=0;exitDy=0;exitPerimeter=0;entryX=-0.013;entryY=0.372;entryDx=0;entryDy=0;entryPerimeter=0;" edge="1" parent="1" target="DFZmVCu-qsXQX8Id_bJ5-2">
          <mxGeometry width="50" height="50" relative="1" as="geometry">
            <mxPoint x="339.99999999999994" y="217.4" as="sourcePoint" />
            <mxPoint x="379.4" y="217.6" as="targetPoint" />
          </mxGeometry>
        </mxCell>
        <mxCell id="DFZmVCu-qsXQX8Id_bJ5-7" value="" style="endArrow=classic;html=1;rounded=0;exitX=1.005;exitY=0.378;exitDx=0;exitDy=0;exitPerimeter=0;entryX=0.492;entryY=1.03;entryDx=0;entryDy=0;entryPerimeter=0;" edge="1" parent="1" target="r1ISIz02WGAyI84771dC-4">
          <mxGeometry width="50" height="50" relative="1" as="geometry">
            <mxPoint x="330" y="229.99999999999997" as="sourcePoint" />
            <mxPoint x="300" y="270" as="targetPoint" />
            <Array as="points">
              <mxPoint x="330" y="310" />
              <mxPoint x="219" y="310" />
            </Array>
          </mxGeometry>
        </mxCell>
        <mxCell id="DFZmVCu-qsXQX8Id_bJ5-8" value="isLoggedIn()" style="text;html=1;strokeColor=none;fillColor=none;align=center;verticalAlign=middle;whiteSpace=wrap;rounded=0;" vertex="1" parent="1">
          <mxGeometry x="290" y="175" width="60" height="30" as="geometry" />
        </mxCell>
        <mxCell id="DFZmVCu-qsXQX8Id_bJ5-9" value="TRUE" style="text;html=1;strokeColor=none;fillColor=none;align=center;verticalAlign=middle;whiteSpace=wrap;rounded=0;" vertex="1" parent="1">
          <mxGeometry x="330" y="210" width="60" height="30" as="geometry" />
        </mxCell>
        <mxCell id="DFZmVCu-qsXQX8Id_bJ5-10" value="FALSE" style="text;html=1;strokeColor=none;fillColor=none;align=center;verticalAlign=middle;whiteSpace=wrap;rounded=0;" vertex="1" parent="1">
          <mxGeometry x="280" y="230" width="60" height="30" as="geometry" />
        </mxCell>
      </root>
    </mxGraphModel>
  </diagram>
</mxfile>
